<svg viewBox="0 0 338 342" fill="none" xmlns="http://www.w3.org/2000/svg">
<path d="M49.7277 263.445C45.9366 261.72 44.7795 256.225 41.2838 252.061C40.5207 250.583 42.0716 252.529 44.0656 255.338C45.9858 258.147 48.7922 261.498 49.7277 263.445ZM32.1999 264.431L30.7475 265.49C32.4953 268.225 34.5386 270.591 35.6464 269.95C34.5386 268.521 33.6524 267.88 32.7415 267.264C33.2585 266.698 33.6031 266.131 32.1999 264.431ZM120.873 307.503C124.098 308.612 127.15 309.499 129.169 309.376C117.205 306.419 103.419 299.741 93.9655 295.478C96.8212 297.055 99.6522 298.682 102.582 300.135L111.567 304.053C114.25 305.088 117.648 306.419 120.873 307.503ZM292.482 279.24C290.242 282.295 287.731 284.858 285.441 287.421C283.103 289.934 280.887 292.423 278.622 294.616C273.97 298.903 269.785 303.043 265.575 306.64C265.477 306.714 265.378 306.813 265.28 306.887C263.187 307.675 261.193 308.094 259.347 307.996C256.393 310.361 253.315 312.185 250.435 314.057C247.506 315.881 244.748 317.704 241.991 319.257C241.917 319.306 241.844 319.33 241.794 319.355C241.499 319.33 241.228 319.281 240.884 319.306C240.834 319.503 240.785 319.725 240.736 319.922C235.615 322.632 230.889 325.269 226.285 327.487C221.263 329.803 216.586 332.316 211.933 334.632C207.256 336.875 202.702 339.363 198.049 342.148C202.8 340.398 208.388 338.353 214.42 336.16C220.254 333.598 226.605 331.232 232.76 328.374C234.532 327.511 236.329 326.698 238.126 325.86C238.126 325.885 238.102 325.885 238.102 325.91C239.8 325.392 240.81 324.85 241.647 324.259C244.748 322.829 247.801 321.4 250.706 319.873C247.826 322.485 244.97 325.195 242.139 328.103C246.275 325.195 251.149 321.77 256.393 318.074C257.328 317.31 258.313 316.571 259.298 315.807H259.322C262.03 314.526 264.59 313.22 267.077 312.185C267.569 309.326 263.433 314.107 262.769 313.146C264.59 311.766 266.412 310.386 268.209 308.932C271.902 306.222 275.447 303.585 278.622 300.751C281.035 298.706 283.349 296.686 285.54 294.69C286.205 294.049 286.82 293.384 287.435 292.718C289.799 290.649 292.162 288.653 294.451 286.805C296.741 284.858 298.883 282.936 301.024 281.285C300.754 278.279 297.75 284.587 297.012 283.232C301.443 277.614 305.776 272.562 309.247 267.264C311.044 264.677 312.767 262.115 314.367 259.601C315.893 257.038 317.198 254.402 318.454 251.839C313.801 257.704 309.468 263.913 305.357 269.236C301.172 274.509 296.741 278.377 292.482 279.24ZM331.206 193.49C330.516 196.742 329.901 199.773 329.285 202.656C328.744 205.564 328.227 208.299 327.734 210.96C327.144 213.597 326.602 216.209 326.159 218.821C326.996 215.987 327.882 212.931 328.818 209.827C329.556 206.673 330.295 203.42 331.033 200.266C332.584 193.933 333.027 187.699 332.855 182.894C332.264 186.714 331.723 190.213 331.206 193.49ZM110.459 328.103C113.733 329.138 117.574 330.813 121.414 332.193C125.255 333.548 129.169 334.263 132.246 334.115C128.701 333.154 124.245 331.971 120.306 330.443C116.318 328.99 112.7 327.881 110.459 328.103ZM332.584 127.255C333.593 130.459 334.603 133.588 335.563 136.594C334.726 132.947 333.84 129.325 332.88 125.777C331.723 122.278 330.516 118.853 329.261 115.551C328.621 113.9 327.981 112.298 327.341 110.697C326.651 109.144 325.864 107.641 325.1 106.188C323.574 103.28 321.999 100.545 320.423 98.056C323.549 104.512 326.701 110.992 328.99 117.596C330.196 120.873 331.526 124.077 332.584 127.255ZM313.087 86.0806C314.638 88.6433 316.115 90.787 317.567 92.093C314.539 87.0909 311.487 80.98 308.09 77.8259C308.976 79.2305 309.887 80.635 310.748 82.0149C311.561 83.4194 312.348 84.7993 313.087 86.0806ZM114.841 264.677C113.906 263.913 112.232 262.78 110.238 261.572C108.219 260.365 106.077 258.763 103.763 257.531C103.123 257.876 102.065 258.123 103.419 258.024C105.708 258.96 107.776 261.425 108.564 262.188C106.742 260.833 104.822 259.207 104.206 260.784C104.748 260.809 105.216 260.981 105.684 261.203C105.536 261.277 105.413 261.326 105.265 261.474C105.167 261.991 106.373 263.174 107.801 264.061C109.253 264.874 110.853 265.466 111.247 265.145C110.632 264.899 110.041 264.357 109.45 263.741C109.893 263.913 110.312 263.889 110.706 263.519C110.189 263.347 109.573 262.928 108.958 262.484C115.728 266.279 116.712 266.205 114.841 264.677ZM117.697 281.113C120.429 282.345 123.408 284.858 125.279 282.911C122.128 281.778 119.543 280.718 117.697 281.113ZM1.62482 192.11C2.11718 193.859 2.63415 195.51 3.10188 196.915C2.58491 195.141 2.16641 193.293 1.96947 191.445C1.82177 189.597 1.77253 187.749 1.7233 186.024C1.62482 182.549 1.55097 179.519 0.763208 177.523C0.0492966 179.592 0.147767 183.042 0.64012 186.689C0.886296 188.488 1.23094 190.336 1.62482 192.11ZM103.173 291.289C102.803 291.511 104.871 293.137 110.73 294.493C108.539 293.211 106.717 292.423 105.413 291.905C104.157 291.363 103.345 291.166 103.173 291.289ZM66.9846 264.751C70.1357 266.944 73.5575 270.098 76.4378 270.468C74.3945 268.817 71.9328 266.156 70.1603 264.258C68.3632 262.361 67.2062 261.203 67.9939 262.336C71.145 265.318 67.2308 262.755 66.9846 264.751ZM94.3594 286.016C91.873 282.492 86.9987 281.926 82.7399 278.057C82.9614 281.827 92.5623 284.045 94.3594 286.016ZM26.5625 89.5796C26.2671 88.7418 26.3902 87.0909 27.2764 87.288C28.8273 85.0211 33.0615 77.6042 34.2432 76.5693C35.9664 73.8588 37.665 71.1976 39.3883 68.6349C42.7116 64.0517 45.6411 59.3207 48.5706 54.8607C48.0537 56.758 47.8075 58.5815 46.0843 61.1688C48.1521 59.0989 50.1462 57.1277 52.1402 55.2057C53.5188 53.7272 54.8974 52.2734 56.3006 50.8689C60.7317 46.7785 65.0398 42.7621 69.3233 39.0167C73.7298 35.4437 77.7671 31.6244 81.7552 28.1008C80.7705 29.801 80.0566 31.5012 77.7179 33.5464C77.9887 33.3986 78.2349 33.2507 78.5057 33.1029C88.9189 25.5628 99.7014 19.8954 111.641 15.6572C111.026 14.4744 108.219 15.6079 105.314 16.9139C103.517 16.8153 106.299 15.7557 109.598 14.5483C112.847 13.2917 116.786 12.3553 116.934 11.3943C116.663 12.8481 118.879 12.8974 122.522 12.1828C124.221 11.7886 126.288 11.345 128.553 10.8769C136.505 8.68383 144.506 7.23003 152.826 6.56473C152.629 5.67766 151.103 5.57909 149.158 5.77622C148.494 5.87478 147.854 5.94871 147.164 6.04727C146.918 6.09655 146.672 6.12119 146.401 6.17047C145.367 5.8255 146.056 5.57909 147.533 5.38197C149.035 4.19921 154.919 4.79059 159.768 3.1643C158.562 2.12938 155.214 2.40043 153.22 1.85833C160.31 -0.97536 162.772 4.56882 171.29 3.78032C170.477 2.96717 168.582 2.6222 166.169 2.54828C167.006 1.93226 169.148 1.93226 168.754 0.749496C178.379 1.14375 188.054 2.42507 197.63 4.54418C197.236 4.37169 196.867 4.19921 196.547 4.02672C200.018 3.60783 202.086 4.66738 204.129 6.04727C206.222 6.58937 208.29 7.23003 210.358 7.84605C211.145 7.79677 211.884 7.72284 211.859 6.95898C234.434 14.0063 255.974 26.1788 274.314 42.5403C279.016 46.7539 283.497 51.2385 287.755 55.9695C290.71 59.0496 293.59 62.2037 296.372 65.4809C296.864 66.3433 297.455 67.2797 298.021 68.1914C300.803 69.9162 304.003 76.6925 306.785 80.2407C306.293 79.9697 305.751 79.4522 305.234 78.8116C310.133 86.3517 314.539 94.2614 318.404 102.541C318.651 103.502 318.995 104.561 319.291 105.571C321.359 107.789 322.663 114.22 324.239 118.459C323.525 115.576 323.328 112.841 324.19 112.151C327.144 115.403 326.799 122.13 327.784 126.097C326.577 125.259 325.248 122.253 324.411 119.222C322.589 117.153 321.408 110.919 319.586 106.68C319.709 107.05 319.783 107.37 319.906 107.74C320.398 109.588 320.94 111.559 321.482 113.604C322.516 117.695 324.091 121.982 325.027 126.689C326.011 131.37 327.316 136.2 328.005 141.227C328.645 146.253 329.458 151.329 329.655 156.381C329.901 160.397 329.975 164.414 329.901 168.43C329.901 168.455 329.901 168.504 329.901 168.529C329.901 168.677 329.901 168.824 329.901 168.948C329.901 169.465 329.901 170.007 329.876 170.525C329.802 187.872 327.439 205.317 321.949 222.049C310.847 256.718 288.371 288.456 256.294 309.277C256.343 308.686 256.663 308.07 257.328 307.38C250.214 312.308 242.681 316.694 234.754 320.439C232.489 321.745 230.224 323.051 228.008 324.333C226.31 325.269 224.661 326.23 222.937 327.043C221.214 327.807 219.466 328.546 217.718 329.236C218.9 327.807 221.288 326.6 223.848 325.269C224.193 325.072 224.537 324.899 224.882 324.702C222.15 325.762 219.417 326.772 216.611 327.684C216.931 326.797 217.817 325.984 219.959 325.318C219.811 325.343 219.663 325.392 219.515 325.441C218.531 325.786 217.546 326.156 216.512 326.476C213.583 327.462 210.579 328.472 207.674 329.458C204.72 330.271 201.84 330.936 199.28 331.503C202.012 330.419 205.065 329.483 208.29 328.349C204.351 329.433 200.511 330.616 196.695 331.897C192.879 332.908 189.113 333.918 185.42 334.903C183.549 335.347 181.703 335.864 179.832 336.185C177.961 336.48 176.09 336.752 174.244 336.949C175.77 335.864 178.355 335.322 181.21 334.706C184.041 333.992 187.143 333.351 189.679 332.513C185.715 332.71 179.98 333.671 173.8 333.967C170.723 334.164 167.548 334.361 164.495 334.558C161.442 334.583 158.488 334.485 155.854 334.361C159.818 333.893 164.298 333.844 169.148 333.326C173.973 332.834 179.167 332.858 184.411 331.996C180.275 330.394 174.268 329.655 168.311 329.211C166.834 329.088 165.332 328.965 163.88 328.842C162.427 328.595 161.024 328.374 159.67 328.152C156.962 327.659 154.549 327.068 152.654 326.255C153.688 326.698 154.008 325.983 153.639 325.047C150.537 325.17 145.343 323.938 142.019 323.815C143.939 322.903 149.257 324.135 153.368 324.554C152.876 323.766 151.965 322.928 150.537 322.485C150.291 322.386 150.069 322.312 149.848 322.238C150.168 322.213 150.438 322.09 150.586 321.868C150.217 322.411 145.515 318.172 149.724 318.788C144.604 317.606 139.877 316.127 135.446 314.599C131.089 312.85 127.052 310.829 123.162 308.858C127.519 309.794 134.511 313.466 141.699 314.969C148.789 316.891 155.756 316.891 158.365 313.392C155.83 311.174 153.245 309.154 149.724 307.355C146.229 305.359 141.674 304.029 135.2 302.796C134.88 301.614 135.249 300.234 133.846 299.322C134.215 298.386 137.933 301.17 141.084 300.948C142.216 300.751 142.413 299.766 144.432 300.308C144.358 299.987 144.161 299.692 143.964 299.421C141.699 299.174 138.597 298.805 136.406 298.731C136.259 297.647 137.465 297.794 138.72 297.992C135.052 296.661 132.271 296.168 129.44 295.429C126.584 294.788 123.556 294.32 119.494 293.063C120.405 292.053 118.534 291.412 117.057 290.722C120.774 291.56 126.092 292.718 131.434 294.616C134.092 295.577 136.923 296.193 139.533 297.08C140.69 297.425 141.822 297.819 142.93 298.213C141.995 297.425 140.862 296.71 140.025 295.872C142.339 295.355 148.174 301.146 149.281 296.217C149.38 294.493 145.293 294.443 142.511 293.852C142.905 292.571 145.219 293.014 147.657 293.507C147.41 291.659 146.475 290.328 146.672 289.392C144.949 289.145 143.373 288.702 142.807 288.382C143.078 287.938 143.865 287.987 143.989 287.396C131.852 284.759 144.382 286.41 148.42 288.184C148.444 288.184 148.469 288.16 148.518 288.16C146.303 286.09 144.973 285.178 143.57 284.414C142.167 283.7 140.714 282.985 138.499 281.236C139.311 280.792 140.764 281.31 142.29 281.926C143.841 282.468 145.441 283.207 146.426 283.527C147.46 283.108 148.469 282.665 149.429 282.197C148.075 280.053 142.191 281.63 141.551 280.176C141.822 279.363 142.068 278.55 141.084 278.18C143.324 277.663 146.401 280.891 150.488 281.162C150.414 280.324 147.017 279.437 150.66 279.979C149.651 278.624 145.367 278.772 143.915 277.614C145.958 277.392 150.315 277.54 153.565 278.008C154.353 276.505 151.965 276.554 151.251 275.815C149.429 275.396 148.494 275.839 148.42 277.17C145.663 274.903 145.466 272.883 142.561 271.774C141.502 269.827 146.352 271.552 143.767 270.221C145.219 269.236 148.691 269.827 152.235 270.616C153.122 270.813 154.008 270.985 154.87 271.158C155.731 271.256 156.568 271.306 157.356 271.33C158.513 271.355 159.498 271.306 160.236 271.059C157.257 270.862 154.303 270.517 151.325 270.074C151.005 270.024 150.66 269.975 150.34 269.926C149.429 269.778 148.543 269.605 147.632 269.433C146.721 269.26 145.81 269.088 144.899 268.915C144.579 268.841 144.284 268.768 143.964 268.694C137.293 267.191 130.867 265.047 124.762 262.312C124.614 262.238 124.467 262.164 124.319 262.115C122.965 261.498 121.611 260.858 120.306 260.193C119.863 259.971 119.445 259.749 119.026 259.527C118.017 259.01 117.008 258.468 116.023 257.901C115.334 257.507 114.669 257.112 113.98 256.694C113.29 256.275 112.576 255.856 111.887 255.437C111.641 255.289 111.395 255.141 111.173 254.993C111.001 255.24 111.69 255.831 113.413 256.743C111.444 257.482 108.539 253.761 107.333 252.702C104.699 255.585 110.632 256.447 111.444 258.394C107.333 257.655 104.502 253.638 101.154 252.726C101.917 253.663 104.625 255.93 107.702 258.073C105.905 257.334 103.591 256.866 101.375 256.127C100.858 255.954 100.341 255.757 99.8738 255.511C101.252 256.817 102.532 258.123 103.542 258.936C103.246 258.96 102.951 258.887 102.656 258.837C102.705 258.936 102.803 259.01 102.852 259.108C98.1751 258.985 95.5164 252.776 90.0267 251.199C89.559 252.85 93.744 252.85 93.7194 255.092C94.1871 254.377 95.7872 255.634 97.4366 257.334C99.086 259.059 101.08 260.956 101.868 262.065C97.1412 259.478 94.1132 256.743 90.7899 254.205C89.0912 252.973 87.5157 251.544 85.7679 249.991C83.9708 248.488 82.0014 246.837 79.7365 244.94C84.1923 249.597 86.0879 254.501 92.0454 259.971C90.4452 255.659 94.384 261.178 94.5317 262.829C95.9595 262.287 98.1505 263.667 100.563 265.564C100.218 266.032 99.3568 265.293 98.6921 264.997C106.422 272.784 118.312 277.86 132.295 283.281C129.833 282.813 127.396 282.221 124.984 281.581C122.596 280.842 120.331 279.831 118.066 278.895C117.303 278.599 116.589 278.254 115.875 277.934C117.402 278.846 118.657 279.757 118.78 280.324C120.159 281.039 120.528 280.398 121.685 280.817C122.177 281.655 120.208 281.384 117.894 280.718C115.58 280.078 113.118 278.673 112.453 278.032C112.823 277.688 113.586 277.934 113.832 277.392C107.998 274.386 108.539 274.336 110.829 275.347C109.007 274.312 107.259 273.228 105.511 272.193C103.542 271.084 101.794 269.753 100.046 268.521C99.0121 267.979 97.9782 267.462 96.9689 266.87C94.8764 265.54 92.9316 263.987 90.9868 262.484C89.8052 261.622 88.722 260.71 87.6634 259.749C87.0234 259.355 86.4079 258.96 85.7679 258.616C88.1804 261.104 90.4206 263.42 92.71 265.515C93.9902 266.205 95.3934 267.191 97.0181 268.324C96.7966 268.472 96.575 268.521 96.3534 268.57C96.3781 268.595 96.4027 268.62 96.4519 268.644C98.2736 270.074 100.046 271.453 101.819 272.833C103.689 274.09 105.634 275.248 107.604 276.48C115.481 281.359 124.885 285.646 138.671 289.343C135.619 289.367 132.394 288.628 129.07 287.618C125.747 286.657 122.276 285.523 119.002 283.922C112.256 281.137 105.979 277.441 99.923 275.322C99.3568 274.583 99.7014 274.484 100.021 274.139C99.7999 273.991 99.5537 273.868 99.3322 273.72C96.3534 271.922 93.3255 269.95 90.5683 267.535C89.1405 266.451 87.7619 265.318 86.4079 264.16C87.1464 265.416 87.6142 266.772 88.205 266.18C90.0267 268.546 86.014 266.895 84.7832 265.663C84.7585 267.043 86.1864 269.26 83.2322 267.511C82.5676 268.792 84.8078 270.566 84.857 272.02C85.7186 272.291 86.5064 272.636 87.6634 273.449L91.0853 275.815C93.7932 277.293 96.8212 279.043 99.8245 281.088C102.139 282.714 104.723 284.02 107.013 285.573C109.376 287.026 111.518 288.653 113.512 289.885C114.054 290.451 107.456 287.544 103.616 286.361C103.64 286.09 103.739 285.918 103.886 285.819C99.4306 284.242 95.3933 281.334 89.3867 276.899C89.1651 276.751 88.9435 276.653 88.722 276.505C88.7466 276.48 88.7466 276.455 88.7712 276.455C88.5989 276.332 88.4512 276.234 88.2789 276.086C88.4758 276.184 88.6481 276.258 88.8451 276.357C89.4113 275.815 88.7958 275.149 87.9342 274.435C82.7153 272.291 78.998 269.605 75.01 266.895C73.1144 265.367 71.1696 263.79 69.0279 262.09C66.8615 260.39 64.4244 258.616 61.8395 256.373C62.0119 252.455 54.6758 249.572 51.7217 243.806C52.214 244.644 53.1003 247.774 54.602 250.657C55.4389 252.086 56.399 253.441 57.4576 254.427C57.1622 253.786 57.0145 253.17 57.113 252.554C57.9253 253.811 58.8362 254.87 59.7717 255.806C60.0917 255.88 60.3871 255.93 60.7071 255.905C61.0025 256.472 61.0025 256.743 60.8794 256.891C63.1443 259.01 65.3352 260.685 66.2707 263.248C65.5076 261.77 61.9134 259.453 59.4516 257.014C59.4024 257.014 59.3532 257.038 59.3285 257.038C61.7657 259.158 62.258 259.453 62.3811 261.646C63.7351 262.731 62.5288 260.242 64.0305 261.622C64.6952 263.396 65.2614 265.047 68.117 268.768C68.8309 269.482 69.4956 270.221 70.2341 270.911C70.7265 270.394 70.0864 269.581 69.2987 268.694C73.5821 273.178 78.3333 277.367 83.4538 281.31C83.183 280.842 83.1338 280.373 83.503 279.979C85.4724 281.605 87.6634 282.936 89.8052 284.341C89.2882 284.365 87.4419 283.848 85.7925 283.084C96.9935 291.314 110.041 298.263 125.033 303.61C125.008 305.384 119.396 301.318 119.322 303.043C122.473 305.532 131.015 307.158 136.48 308.439C137.982 306.542 132.344 306.714 130.178 305.827C127.667 304.349 139.311 306.887 140 307.946C138.105 309.105 134.215 308.661 129.833 307.675C125.525 306.419 120.75 304.571 116.737 303.437C117.475 303.166 118.189 302.895 118.411 302.082C117.352 301.762 116.294 301.367 115.26 300.924C114.767 302.18 115.481 302.304 112.059 302.846C111.198 302.673 110.73 302.18 110.435 301.638C109.918 301.441 109.401 301.244 108.859 300.998C106.274 299.864 103.517 297.942 101.523 297.326C103.345 297.376 104.699 297.844 106.028 298.484C105.93 297.893 106.225 297.425 104.256 296.193C102.089 296.612 98.6429 295.256 94.8271 293.285C90.9868 290.944 86.851 287.913 83.2815 285.794C83.7738 285.745 84.2416 285.671 84.6354 285.474C83.7984 284.858 82.9614 284.242 82.1245 283.626C81.8044 284.168 81.5583 284.291 78.9488 284.02C76.2162 282.665 78.8749 278.821 75.7485 280.718C73.4837 278.402 74.4684 278.279 74.2961 277.367C71.0219 274.78 67.9693 272.464 65.5322 270.813C65.8768 270.763 66.0491 270.64 66.123 270.492C63.7597 268.25 61.0518 265.441 58.5162 262.139C57.0145 260.266 55.4882 258.369 53.9619 256.447C53.9373 256.422 53.9127 256.398 53.9127 256.373C53.765 256.989 53.568 257.753 52.2879 256.841C51.894 257.531 52.3618 258.246 53.051 258.911C53.0018 258.813 52.928 258.714 52.8295 258.591C54.0604 258.788 54.6758 259.65 55.1682 260.685C55.6113 261.104 55.8575 261.449 55.6113 261.72C56.079 262.903 56.5714 264.16 57.5561 265.071C55.9067 265.293 55.4143 263.42 54.9958 262.016C54.9712 262.016 54.9712 262.041 54.9466 262.041C54.4789 261.474 54.085 261.08 53.7403 260.735C53.6419 260.833 53.5188 260.932 53.3711 261.104C53.1249 260.735 53.1003 260.464 53.1495 260.193C51.8448 259.108 51.3278 259.355 50.417 258.32C49.7523 256.669 50.0723 255.462 51.377 254.698C49.4076 251.765 48.1029 251.371 46.6258 251.125C50.9585 254.279 45.5919 251.938 49.4569 256.127C48.7676 256.299 47.709 254.599 47.0936 255.018C47.8813 257.95 52.5341 262.533 54.1588 265.737C50.6385 261.917 45.9858 257.063 42.687 252.554C39.2652 248.143 36.2618 244.743 35.2033 244.521C33.7262 244.743 33.1354 238.558 35.671 242.87C35.1294 241.096 29.5658 235.256 27.5964 229.638C27.4487 231.363 27.9411 233.457 25.8732 231.732C27.4241 236.882 27.621 235.33 30.1813 239.051C29.4674 238.706 28.7288 238.385 28.0149 238.804C30.4274 242.057 30.5505 240.357 30.8952 244.201C23.4607 232.003 16.8631 215.716 13.072 198.714C10.9303 190.434 10.0933 181.736 9.42861 173.432C9.30552 169.293 9.25629 165.202 9.25629 161.284C9.18244 157.342 9.72402 153.596 9.9702 149.999C9.05935 148.742 10.2902 147.264 11.2011 145.49C11.398 143.913 11.6442 142.385 11.8904 140.832C11.3242 140.561 10.0687 142.41 10.9549 138.911C11.6442 137.728 12.3581 135.855 13.0966 133.588C13.1705 133.218 13.2197 132.849 13.2936 132.479C14.2537 128.438 15.263 124.496 16.2723 120.701C17.2078 116.882 18.7095 113.383 19.8911 109.982C19.2757 108.405 21.1958 107.247 22.599 105.571C23.116 104.29 23.633 102.984 24.1746 101.703C23.8053 101.087 21.8851 102.812 23.7068 99.5591C24.79 98.4996 26.0947 96.6515 27.5472 94.3599C27.8426 93.7685 28.1134 93.1525 28.4334 92.5858C29.9105 89.7274 31.3137 86.9677 32.7169 84.4297C34.2432 81.9902 35.6956 79.7479 37.0004 77.7767C31.9784 84.3804 28.2857 91.0334 24.5192 97.4893C21.2943 104.216 17.8725 110.795 15.6076 118.262C17.7001 107.962 21.8851 98.4257 26.5625 89.5796ZM108.687 300.012C109.056 300.185 109.45 300.357 109.844 300.53C109.622 299.864 109.401 299.495 108.687 300.012ZM74.8623 252.997C74.6407 252.776 74.4191 252.529 74.173 252.307C74.0499 252.726 74.0745 253.121 74.1483 253.54C74.2468 253.293 74.5668 253.244 74.8623 252.997ZM215.183 14.3512C216.635 14.7948 218.014 15.2136 219.245 15.4847C218.014 14.9672 216.832 14.4991 215.65 14.0309C215.355 14.1295 215.183 14.228 215.183 14.3512ZM49.9985 241.367C48.743 240.061 47.5121 238.41 46.2812 236.858C46.1827 236.932 46.1089 236.956 46.0104 237.079C47.3151 239.667 49.1368 242.673 50.4416 241.983C50.3185 241.811 50.1462 241.589 49.9985 241.367ZM39.0928 223.749C39.4867 224.242 39.9052 224.66 40.373 224.956C40.0037 224.168 39.6344 223.305 39.3144 222.196C39.1175 222.615 39.0682 223.157 39.0928 223.749ZM39.856 226.164C39.9052 226.238 39.9298 226.311 39.9545 226.41C40.4961 227.199 40.8653 227.79 41.1607 228.307C41.2592 228.431 41.3331 228.578 41.4561 228.702C43.2778 231.018 45.5673 233.137 46.5766 234.27C44.8534 230.155 42.884 229.071 41.21 226.459C40.8653 226.484 40.2745 226.114 39.856 226.164ZM41.0376 242.993C42.4162 245.162 43.5486 246.689 43.2532 245.236C41.6531 243.264 40.9638 241.318 40.373 239.765C39.7329 238.238 39.0928 237.104 37.6158 236.611C38.3543 237.794 39.7575 240.751 41.0376 242.993ZM41.3331 247.823L45.8627 254.599L46.8474 253.884C44.9765 251.962 42.7609 245.802 41.3331 247.823ZM101.006 295.848C101.105 295.774 101.105 295.7 101.178 295.626C100.12 295.232 98.8644 294.665 97.4366 293.901C94.3594 292.3 90.5191 290.057 86.7526 287.174C89.8298 290.156 96.5504 293.458 101.006 295.848ZM83.5769 262.312C83.7984 262.238 84.02 262.262 84.2169 262.287C80.8936 259.404 77.6933 256.57 74.4191 254.353C74.9853 255.535 76.2162 256.743 77.6933 258.024C78.8749 259.01 80.155 260.143 81.5336 261.203C82.9122 262.262 84.2908 263.396 85.4478 264.677C85.7925 264.037 84.4139 263.149 83.5769 262.312ZM100.268 272.661C99.7999 272.513 99.2091 272.217 98.5198 271.848C99.086 272.242 99.6768 272.636 100.268 273.03C100.268 272.907 100.292 272.809 100.268 272.661ZM98.249 255.437C97.5105 254.624 96.7473 253.811 95.9103 253.022C96.1319 253.983 97.092 254.698 98.249 255.437ZM96.0088 252.381C95.9842 252.332 95.9349 252.307 95.9103 252.258C95.9103 252.283 95.9103 252.307 95.9103 252.332C95.9349 252.332 95.9842 252.357 96.0088 252.381ZM321.334 121.908C320.349 118.779 319.365 116.29 319.266 116.561C319.266 116.586 319.266 116.611 319.266 116.635C320.128 118.902 320.792 120.652 321.334 121.908ZM306.194 85.1196C305.923 84.3311 304.963 82.6555 303.462 80.5364C304.742 82.7541 305.628 84.2572 306.219 85.1689C306.194 85.1443 306.194 85.1443 306.194 85.1196ZM298.612 69.1524C298.735 69.3249 298.809 69.4973 298.932 69.6698C299.72 70.754 300.483 71.8875 301.246 72.9717C300.384 71.6164 299.498 70.2859 298.612 69.1524ZM159.079 4.74131C159.596 5.48053 161.492 5.87478 164.224 6.07191C166.538 6.17047 169.468 6.31832 172.717 6.4908C173.579 6.46616 174.367 6.39224 174.982 6.2444C174.662 6.3676 174.49 6.4908 174.317 6.58937C175.671 6.66329 177.05 6.76185 178.453 6.86042C178.158 5.97335 183.598 6.61401 190.91 7.84605C192.534 8.16638 194.258 8.58527 196.03 9.00417C199.107 9.52162 201.791 10.2608 203.982 11.0494C204.597 11.1972 205.213 11.3697 205.828 11.5175C206.099 11.5915 206.37 11.6654 206.64 11.7639C205.286 10.2855 210.899 12.8728 214.69 13.6613C212.869 12.9467 211.072 12.2321 209.348 11.5914C206.197 10.458 203.12 9.69411 200.166 8.85632C197.31 8.1171 194.529 7.35323 191.821 6.81113C191.082 6.71257 190.393 6.61401 189.63 6.51544C189.63 6.4908 189.654 6.4908 189.679 6.46616C187.512 6.12119 185.371 5.77622 183.229 5.50517C180.472 5.18484 177.739 4.76595 174.933 4.64274C172.126 4.56882 169.295 4.51954 166.341 4.54418C164.003 4.47026 161.566 4.56882 159.079 4.74131ZM21.4174 91.8958C22.3775 89.3825 26.144 84.8732 25.2577 83.7151C24.2238 85.2428 23.3376 85.1196 22.3036 86.4995C24.0269 86.8198 20.4819 91.0088 21.4174 91.8958ZM118.042 300.135C119.888 300.505 121.98 300.505 122.497 300.357C120.06 299.569 117.598 298.854 115.284 297.77C114.718 298.879 116.195 299.766 118.042 300.135ZM150.808 310.854C147.73 311.125 145.49 310.682 143.472 310.238C141.453 309.721 139.656 309.326 137.243 309.918C139.311 309.992 142.462 311.125 145.269 311.544C148.075 311.988 150.463 312.111 150.808 310.854ZM117.943 267.462C122.424 268.644 125.993 273.301 129.144 272.143C126.264 270.911 121.119 267.166 117.943 267.462ZM137.416 274.78C135.175 274.607 130.67 271.404 130.4 273.819C133.354 273.203 136.209 276.628 137.416 274.78ZM70.8988 308.045C73.8037 309.893 77.0778 312.505 80.4258 314.846C83.7738 317.137 87.368 318.862 90.396 319.503C87.2203 317.655 83.2076 315.363 79.8104 312.85C76.3147 310.435 73.1144 308.439 70.8988 308.045ZM11.5457 229.145C12.1858 228.726 12.6535 228.283 11.7427 226.287L10.0687 226.927C11.0534 230.032 12.4073 232.841 13.6628 232.521C12.9735 230.845 12.2596 229.983 11.5457 229.145ZM102.434 312.012C106.127 313.146 111.961 316.423 114.694 316.374C118.854 317.975 122.719 319.133 124.196 318.567C121.513 317.729 117.549 316.25 113.635 314.846C109.745 313.417 106.028 311.643 103.419 311.027C104.822 311.667 106.594 312.604 108.539 313.589C109.179 313.934 109.869 314.254 110.533 314.599C107.358 313.22 104.083 311.716 102.434 312.012ZM79.835 275.692C78.0379 273.893 76.487 272.661 75.3792 271.823C74.2961 270.936 73.5821 270.566 73.3606 270.64C72.9421 270.739 74.5176 272.833 79.835 275.692ZM63.3904 272.267C68.2401 276.234 74.3945 281.458 80.8936 286.287C80.8689 285.918 80.8197 285.573 80.2043 285.129C83.0845 284.858 83.7246 288.727 86.4572 290.18C86.4325 290.18 86.4079 290.18 86.3833 290.205C88.8697 291.881 91.3561 293.482 93.8178 294.838C91.8484 294.419 89.1159 292.792 86.2848 290.87C85.9894 290.673 85.7186 290.476 85.4232 290.279C85.0047 290.18 84.6108 289.885 84.2908 289.515C82.0998 287.987 79.9827 286.41 78.1856 285.104L70.5296 278.993C68.0678 276.85 65.7537 274.533 63.3904 272.267ZM81.706 286.903C82.2229 287.273 82.7399 287.642 83.2569 288.012C82.6907 287.076 82.2229 286.361 81.706 286.903ZM5.219 155.149C5.26823 152.734 5.46517 151.65 5.83444 151.699C5.56364 153.375 5.31747 155.149 5.04667 156.997C4.87435 156.8 4.75126 156.553 4.5297 156.381C4.35738 160.792 3.91426 165.695 3.98812 170.87C3.93888 176.044 3.76656 181.514 4.30815 186.886C4.70203 192.282 5.14514 197.679 6.32679 202.582C7.40997 207.51 8.41929 212.168 10.1671 215.913C9.5517 212.094 8.88702 208.053 8.24696 203.962C8.83779 206.821 9.50246 209.827 10.3641 212.907C11.6688 217.934 12.8997 223.231 14.8199 228.307C16.5923 233.408 18.4387 238.509 20.8266 242.944C23.1406 247.429 25.3316 251.642 27.9903 254.821C21.7867 241.022 14.1552 224.587 11.7919 210.714C12.1858 211.601 12.5058 213.104 13.0966 212.956C11.5703 211.083 10.7826 207.88 10.2902 204.948C9.79788 202.262 9.18244 199.921 7.55767 199.034C7.43458 198.122 7.31149 197.211 7.18841 196.299C7.28688 196.669 7.40997 197.038 7.50844 197.383C6.64682 193.761 6.84376 193.071 8.22235 194.697C7.11455 191.248 6.69605 187.133 6.22832 182.771C6.00676 180.603 5.83444 178.36 5.68673 176.093C5.66211 175.527 5.66211 174.935 5.66211 174.369C5.68673 172.57 5.7852 170.796 5.93291 169.071C6.08061 170.032 6.00676 171.56 6.59758 171.584C5.61288 169.367 5.66211 166.065 5.95753 163.108C6.056 161.777 6.10523 160.52 6.00676 159.436C6.056 158.426 6.08061 157.342 6.17908 156.381C6.30217 155.026 6.40064 153.72 6.49911 152.438C6.54835 152.512 6.57297 152.586 6.6222 152.685C6.59758 151.97 6.6222 151.206 6.64682 150.467C6.67144 149.925 6.69605 149.407 6.74529 148.89C6.94223 146.278 7.36073 143.518 7.80385 140.66C8.14849 138.492 8.56699 136.299 9.01011 134.081C9.45323 131.863 10.1671 129.695 10.758 127.526C10.758 127.502 10.7826 127.477 10.7826 127.453C10.8811 127.945 11.078 128.463 11.3242 128.709C12.4566 123.83 14.1552 119.075 15.6815 114.27C15.4353 111.264 12.4566 122.919 11.3242 126.122C11.2503 126.122 11.2257 126.22 11.1518 126.245C12.2843 122.377 13.3182 118.557 14.5737 115.181C15.9523 111.411 17.1585 107.986 17.9463 105.128C16.5923 108.036 14.943 111.732 13.1951 115.847C11.595 120.011 10.1918 124.693 8.78855 129.375C8.05002 131.715 7.50844 134.081 7.11455 136.471C6.67144 138.837 6.27755 141.153 5.95753 143.37C5.66211 145.588 5.31747 147.707 5.24361 149.679C5.12053 151.699 5.14514 153.522 5.219 155.149ZM86.6295 302.402C84.2416 300.899 80.7951 298.435 77.3979 296.07C74.0006 293.679 70.8742 291.018 68.5109 289.737C69.6926 290.722 71.1696 292.078 72.7944 293.532C74.3945 295.035 76.167 296.538 78.0133 297.819C81.6075 300.456 85.0539 302.575 86.6295 302.402ZM1.40327 143.001C1.18171 144.824 1.00938 146.697 0.935531 148.496C0.960149 150.319 1.034 152.044 1.10785 153.522C1.05862 151.674 1.15709 149.777 1.4525 147.954C1.79715 146.13 2.21565 144.331 2.60953 142.631C3.39729 139.255 4.1112 136.299 3.88965 134.179C2.63415 136.003 1.84638 139.354 1.40327 143.001ZM149.798 322.189C148.223 322.361 145.564 320.71 149.798 322.189V322.189ZM45.9612 56.832C47.5367 54.6389 52.3371 51.2878 51.7955 49.9325C50.3923 51.1399 49.58 50.7703 48.226 51.8545C49.7769 52.6184 45.2719 55.7478 45.9612 56.832ZM132.788 270.887C130.227 270.32 126.264 267.535 124.639 268.398C127.224 270.197 129.784 271.207 132.788 270.887ZM327.981 122.229C328.399 123.806 328.818 125.333 329.187 126.763C330.024 129.621 330.886 132.085 331.944 133.736C330.295 128.118 328.941 121.416 326.479 117.498C326.996 119.099 327.488 120.676 327.981 122.229ZM199.107 333.376C198 335.421 197.04 337.466 194.676 339.043C198.886 338.92 199.427 337.565 202.554 336.924C202.308 335.051 201.274 333.795 199.107 333.376ZM333.052 169.219C333.126 165.128 335.194 158.746 333.175 154.828C331.009 155.789 331.107 166.927 333.052 169.219ZM124.787 315.511C126.436 317.408 135.028 320.834 138.548 319.996C134.782 318.32 127.372 314.846 124.787 315.511ZM314.712 243.585C313.432 246.246 312.225 248.759 311.068 251.199C309.813 253.589 308.631 255.979 307.499 258.369C309.05 255.856 310.699 253.145 312.373 250.361C313.899 247.503 315.45 244.57 317.001 241.687C320.152 235.971 322.171 230.081 323.254 225.375C321.703 228.899 320.275 232.151 318.921 235.182C317.42 238.188 316.017 240.973 314.712 243.585ZM336.424 161.334C336.745 164.808 337.188 168.233 337.385 171.584C337.532 174.96 337.68 178.213 337.828 181.391C337.951 177.67 338.049 173.925 338.025 170.254C337.828 166.582 337.532 162.96 337.188 159.436C336.991 157.687 336.794 155.962 336.597 154.262C336.326 152.562 335.957 150.935 335.612 149.309C334.898 146.106 334.086 143.05 333.2 140.241C334.529 147.288 335.883 154.36 336.424 161.334Z" fill="url(#paint0_linear)"/>
<defs>
<linearGradient id="paint0_linear" x1="335.708" y1="195.369" x2="1.23066" y2="144.08" gradientUnits="userSpaceOnUse">
<stop stop-color="#FFAFD7"/>
<stop offset="1" stop-color="#FFC331"/>
</linearGradient>
</defs>
</svg>
